<?xml version="1.0" encoding="UTF-8"?>
<svg width="334px" height="322px" viewBox="0 0 334 322" version="1.1" xmlns="http://www.w3.org/2000/svg" xmlns:xlink="http://www.w3.org/1999/xlink">
    <!-- Generator: Sketch 47 (45396) - http://www.bohemiancoding.com/sketch -->
    <title>Page 1</title>
    <desc>Created with Sketch.</desc>
    <defs>
        <linearGradient x1="50%" y1="1.5365912%" x2="50%" y2="98.8560268%" id="linearGradient-1">
            <stop stop-color="#FAE391" offset="0%"></stop>
            <stop stop-color="#F5C65B" offset="100%"></stop>
        </linearGradient>
        <linearGradient x1="50%" y1="0%" x2="50%" y2="100%" id="linearGradient-2">
            <stop stop-color="#EDBA39" offset="0%"></stop>
            <stop stop-color="#D7851A" offset="100%"></stop>
        </linearGradient>
        <linearGradient x1="50%" y1="0%" x2="50%" y2="100%" id="linearGradient-3">
            <stop stop-color="#FFB88F" offset="0%"></stop>
            <stop stop-color="#FE8256" offset="100%"></stop>
        </linearGradient>
        <polygon id="path-4" points="21.4002 0.6 0.5992 0.6 0.5992 22.9996 21.4002 22.9996 21.4002 0.6"></polygon>
    </defs>
    <g id="Page-1" stroke="none" stroke-width="1" fill="none" fill-rule="evenodd">
        <g id="-login-copy1" transform="translate(-477.000000, -234.000000)">
            <g id="Page-1" transform="translate(477.000000, 234.000000)">
                <g id="Group-7" transform="translate(42.000000, 19.436000)">
                    <path d="M85.1074354,39.8468612 C85.1764291,40.1608065 85.261412,40.4717541 85.3314,40.7877 C90.9054,66.7927 82.0404,91.1747 65.8224,99.8647 L65.9654,99.8137 C65.2254,100.1757 64.8874,100.4517 64.7444,100.5947 C64.4304,100.9327 64.1024,101.4287 64.0244,102.0837 C63.8594,103.4117 65.6464,103.9037 65.7664,104.2677 C65.8864,104.6317 65.0584,104.7737 64.8394,104.9317 C64.6244,105.0897 63.8254,104.9157 63.6494,105.1987 C63.4734,105.4827 63.1964,105.4637 62.8004,105.4837 C62.3994,105.5037 62.2074,105.5257 61.7724,105.8047 C61.3404,106.0857 60.8454,105.7107 60.8454,105.7107 C60.8454,105.7107 60.3464,105.8187 61.3434,103.8927 C61.5744,103.4487 61.1474,103.0777 60.6244,102.8047 C59.9934,102.4557 59.0964,102.4857 58.6214,102.5317 C49.2754,104.5677 38.8434,101.9377 29.3134,95.6387 C19.9626272,89.4565166 11.4806754,79.7405471 5.7567,67.4096 C-6.3893,41.2796 3.2727,11.0636 28.3447,2.6836 C53.1277,-5.6154 78.7087,12.2066 85.1077,39.8466 Z" id="Combined-Shape" fill="url(#linearGradient-1)"></path>
                    <path d="M64.0244,102.084 C64.0244,102.084 59.4234,103.938 61.3434,103.893 C63.2644,103.846 65.2334,102.131 64.2494,102.988 C63.2644,103.846 60.8754,104.911 60.8754,104.911 C60.8754,104.911 67.1784,106.275 66.6384,114.915 C66.0984,123.554 68.8504,126.502 71.5234,130.223 C74.1954,133.943 74.4674,141.642 73.6584,153.25" id="Stroke-5" stroke="url(#linearGradient-2)"></path>
                </g>
                <text id="成本管控" font-family="PingFangSC-Light, PingFang SC" font-size="11.8785" font-weight="300" fill="#FDF4F3">
                    <tspan x="65.1543" y="89.3499663">成本管控</tspan>
                </text>
                <g id="Group-14" transform="translate(219.000000, 0.436000)">
                    <path d="M16.2412,96.249 L85.1572,27.335 C89.7172,39.901 88.9082,55.074 81.8852,68.853 C69.7712,92.645 47.4362,106.031 29.3012,102.54 L29.4442,102.591 C28.6372,102.405 28.1992,102.407 27.9982,102.428 C27.5402,102.492 26.9702,102.673 26.4932,103.132 C25.5272,104.065 26.6062,105.574 26.4692,105.936 C26.3342,106.296 25.5952,105.881 25.3282,105.868 C25.0592,105.853 24.5442,105.214 24.2302,105.321 C23.9142,105.433 23.7102,105.241 23.3872,105.007 C23.0642,104.77 22.8982,104.663 22.3842,104.605 C21.8682,104.552 21.7202,103.946 21.7202,103.946 C21.7202,103.946 21.2632,103.715 23.2602,102.843 C23.7202,102.645 23.6222,102.086 23.3882,101.541 C23.1192,100.873 22.4002,100.327 22.0002,100.06 C19.9562,99.028 18.0362,97.745 16.2412,96.249 Z M61.5957,3.0996 C73.1537,7.4376 81.1897,16.3986 85.1577,27.3346 L16.2417,96.2486 C3.1447,85.3176 -2.9053,62.7386 3.0357,39.2416 C10.1067,11.1946 36.7537,-6.2364 61.5957,3.0996 Z" id="Combined-Shape" fill="url(#linearGradient-3)"></path>
                    <path d="M23.25,101.2686 C23.25,101.2686 26.642,102.6126 26.268,103.4256 C25.894,104.2406 23.841,104.0956 22.688,103.2316 C21.534,102.3666 21.715,106.0396 22.147,108.0576 C22.58,110.0756 26.901,117.3876 19.77,123.7636 C12.637,130.1396 11.338,134.7886 11.231,139.0016 C11.124,143.2146 5.937,149.3746 5.937,149.3746" id="Stroke-12" stroke="#F6C961"></path>
                </g>
                <text id="精准营销" font-family="PingFangSC-Light, PingFang SC" font-size="12.4713" font-weight="300" fill="#FEFEFE">
                    <tspan x="238.0352" y="67.7300446">精准营销</tspan>
                </text>
                <g id="Group-17" transform="translate(252.000000, 29.436000)">
                    <mask id="mask-5" fill="white">
                        <use xlink:href="#path-4"></use>
                    </mask>
                    <g id="Clip-16"></g>
                    <path d="M10.2002,8.5996 C8.8952,7.9926 7.1912,9.6966 7.1912,11.7996 C7.1912,13.9046 8.8952,15.6086 11.0002,15.6086 C13.1042,15.6086 14.8082,13.9046 14.8082,11.7996 C14.8082,9.6966 13.1042,8.5996 10.2002,8.5996 L10.2002,8.5996 Z M19.8002,10.2006 C19.0732,6.8776 15.9222,3.7266 11.8002,3.2876 L11.8002,0.5996 L10.2002,0.5996 L10.2002,3.2876 C6.0782,3.7266 2.9272,6.8776 2.4882,10.2006 L0.5992,10.2006 L0.5992,13.4006 L2.4882,13.4006 C2.9272,16.7226 6.0782,19.8726 10.2002,20.3116 L10.2002,22.9996 L11.8002,22.9996 L11.8002,20.3116 C15.9222,19.8726 19.0732,16.7226 19.5122,13.4006 L21.4002,13.4006 L21.4002,10.2006 L19.8002,10.2006 Z M10.2002,18.2006 C7.3152,18.4646 4.3362,15.4846 4.3362,11.7996 C4.3362,8.1156 7.3152,5.1356 11.0002,5.1356 C14.6842,5.1356 17.6642,8.1156 17.6642,11.7996 C17.6642,15.4846 14.6842,18.2006 10.2002,18.2006 L10.2002,18.2006 Z" id="Fill-15" fill="#FEFEFE" mask="url(#mask-5)"></path>
                </g>
                <g id="Group-236" transform="translate(0.000000, 97.436000)">
                    <polygon id="Fill-18" fill="#B8D2EF" points="334 91 333 98 155 223 155 215"></polygon>
                    <polygon id="Fill-20" fill="#D1E8F9" points="0 136 179.898 50.485 334 91 155 215"></polygon>
                    <polygon id="Fill-22" fill="#B8D2EF" points="155 215 155 223 0 142 0 136"></polygon>
                    <path d="M96.3838,151.4863 C94.9908,152.2523 94.9828,153.5073 96.3668,154.2723 L98.7828,155.6093 C100.1648,156.3753 102.4388,156.3753 103.8298,155.6093 L125.6968,143.5823 C127.0888,142.8163 127.0958,141.5613 125.7138,140.7963 L123.2978,139.4593 C121.9138,138.6933 119.6418,138.6933 118.2498,139.4593 L96.3838,151.4863 Z" id="Fill-24" fill="#4CBFDA"></path>
                    <path d="M117.6309,136.6299 C119.0339,135.8579 121.3069,135.8579 122.7019,136.6299 L132.6919,142.1609 L101.0939,159.5419 L91.1039,154.0119 C89.7099,153.2389 89.7159,151.9839 91.1189,151.2119 L117.6309,136.6299 Z M98.7829,155.6089 C100.1649,156.3749 102.4389,156.3749 103.8299,155.6089 L125.6969,143.5819 C127.0889,142.8169 127.0959,141.5619 125.7139,140.7959 L123.2979,139.4589 C121.9139,138.6929 119.6419,138.6929 118.2499,139.4589 L96.3839,151.4859 C94.9909,152.2519 94.9849,153.5069 96.3669,154.2729 L98.7829,155.6089 Z" id="Fill-26" fill="#4A9DD6"></path>
                    <path d="M122.7021,136.6299 L132.6911,142.1609 L101.0941,159.5419 L121.3471,170.7559 C122.7451,171.5299 125.0181,171.5299 126.4221,170.7589 L152.9321,156.1759 C154.3361,155.4039 154.3441,154.1499 152.9441,153.3749 L122.7021,136.6299 Z" id="Fill-28" fill="#4CBFDA"></path>
                    <path d="M91.1035,154.0117 L101.0935,159.5417 L121.3465,170.7557 C122.7455,171.5307 125.0185,171.5307 126.4215,170.7587 L152.9325,156.1757 C153.6385,155.7867 153.9905,155.2777 153.9895,154.7687 L153.9995,158.1667 C154.0005,158.6777 153.6485,159.1867 152.9425,159.5747 L126.4325,174.1577 C125.0295,174.9297 122.7555,174.9297 121.3555,174.1557 L101.1025,162.9417 L91.1135,157.4097 C90.4205,157.0267 90.0745,156.5247 90.0735,156.0207 L90.0625,152.6217 C90.0635,153.1247 90.4115,153.6267 91.1035,154.0117" id="Fill-30" fill="#3386B6"></path>
                    <path d="M131.3262,144.5674 C132.6012,143.8804 134.6862,143.8984 135.9392,144.6074 L148.9982,151.9904 C150.2562,152.7024 150.2332,153.8484 148.9572,154.5364 L145.0072,156.6624 C143.7312,157.3484 141.6532,157.3364 140.3932,156.6224 L127.3372,149.2404 C126.0832,148.5304 126.1012,147.3814 127.3762,146.6944 L131.3262,144.5674 Z" id="Fill-32" fill="#DF6B68"></path>
                    <path d="M126.4072,147.9678 C126.4052,148.4258 126.7142,148.8878 127.3372,149.2398 L140.3932,156.6218 C141.6542,157.3358 143.7312,157.3488 145.0072,156.6628 L148.9572,154.5358 C149.6002,154.1898 149.9242,153.7278 149.9282,153.2618 L149.9192,154.6208 C149.9152,155.0868 149.5912,155.5488 148.9472,155.8958 L144.9982,158.0228 C143.7222,158.7088 141.6442,158.6948 140.3852,157.9828 L127.3282,150.6008 C126.7052,150.2478 126.3962,149.7848 126.3992,149.3278 L126.4072,147.9678 Z" id="Fill-34" fill="#DE3B2C"></path>
                    <path d="M127.0947,157.623 C127.7147,157.29 128.7187,157.3 129.3247,157.644 L131.2037,158.705 C131.8097,159.048 131.8037,159.602 131.1837,159.936 L129.2767,160.962 C128.6567,161.296 127.6497,161.286 127.0437,160.944 L125.1657,159.883 C124.5597,159.54 124.5687,158.984 125.1877,158.65 L127.0947,157.623 Z" id="Fill-36" fill="#FEFEFE"></path>
                    <path d="M131.876,155.0273 C132.496,154.6943 133.501,154.7043 134.106,155.0483 L135.985,156.1093 C136.591,156.4513 136.585,157.0063 135.966,157.3403 L134.058,158.3663 C133.438,158.7003 132.434,158.6893 131.827,158.3473 L129.95,157.2863 C129.344,156.9433 129.35,156.3883 129.969,156.0553 L131.876,155.0273 Z" id="Fill-38" fill="#FEFEFE"></path>
                    <path d="M129.499,156.6699 C129.499,156.8929 129.648,157.1149 129.95,157.2859 L131.827,158.3469 C132.434,158.6899 133.438,158.6999 134.058,158.3659 L135.966,157.3399 C136.277,157.1719 136.434,156.9479 136.436,156.7249 L136.431,157.3819 C136.43,157.6069 136.272,157.8289 135.961,157.9969 L134.054,159.0239 C133.435,159.3579 132.43,159.3479 131.823,159.0039 L129.946,157.9419 C129.645,157.7729 129.494,157.5499 129.496,157.3279 L129.499,156.6699 Z" id="Fill-40" fill="#D5E3F3"></path>
                    <path d="M136.4014,157.4912 C137.0204,157.1582 138.0234,157.1662 138.6314,157.5112 L140.5064,158.5712 C141.1164,158.9162 141.1074,159.4682 140.4874,159.8022 L138.5804,160.8282 C137.9614,161.1632 136.9594,161.1532 136.3504,160.8092 L134.4754,159.7492 C133.8664,159.4052 133.8754,158.8522 134.4934,158.5182 L136.4014,157.4912 Z" id="Fill-42" fill="#FEFEFE"></path>
                    <path d="M134.0234,159.1338 C134.0224,159.3558 134.1724,159.5778 134.4754,159.7488 L136.3504,160.8098 C136.9594,161.1538 137.9614,161.1628 138.5804,160.8288 L140.4884,159.8018 C140.7984,159.6348 140.9574,159.4098 140.9584,159.1868 L140.9544,159.8438 C140.9514,160.0678 140.7944,160.2918 140.4834,160.4588 L138.5764,161.4858 C137.9564,161.8198 136.9544,161.8118 136.3444,161.4658 L134.4704,160.4068 C134.1684,160.2358 134.0174,160.0138 134.0194,159.7918 L134.0234,159.1338 Z" id="Fill-44" fill="#D5E3F3"></path>
                    <path d="M129.1553,161.7695 C129.1543,161.9915 129.3023,162.2145 129.6053,162.3845 L131.4793,163.4445 C132.0893,163.7895 133.0933,163.7965 133.7133,163.4625 L135.6203,162.4345 C135.9323,162.2675 136.0893,162.0435 136.0923,161.8195 L136.0863,162.4775 C136.0853,162.7025 135.9273,162.9245 135.6163,163.0925 L133.7083,164.1205 C133.0893,164.4535 132.0853,164.4465 131.4743,164.1025 L129.5993,163.0415 C129.2993,162.8715 129.1493,162.6495 129.1503,162.4275 L129.1553,161.7695 Z" id="Fill-46" fill="#D5E3F3"></path>
                    <path d="M117.5352,163.1445 C118.1552,162.8105 119.1612,162.8215 119.7672,163.1645 L121.6442,164.2255 C122.2512,164.5695 122.2442,165.1235 121.6262,165.4565 L119.7182,166.4825 C119.0972,166.8165 118.0912,166.8085 117.4842,166.4645 L115.6062,165.4035 C115.0012,165.0615 115.0102,164.5045 115.6292,164.1705 L117.5352,163.1445 Z" id="Fill-48" fill="#FEFEFE"></path>
                    <path d="M122.3174,160.5479 C122.9374,160.2149 123.9424,160.2259 124.5474,160.5679 L126.4254,161.6299 C127.0324,161.9719 127.0264,162.5269 126.4064,162.8609 L124.4994,163.8879 C123.8794,164.2219 122.8754,164.2109 122.2684,163.8679 L120.3914,162.8069 C119.7854,162.4639 119.7914,161.9099 120.4104,161.5759 L122.3174,160.5479 Z" id="Fill-50" fill="#FEFEFE"></path>
                    <path d="M119.9414,162.1904 C119.9394,162.4144 120.0894,162.6354 120.3914,162.8064 L122.2684,163.8684 C122.8754,164.2114 123.8794,164.2214 124.4994,163.8874 L126.4064,162.8604 C126.7174,162.6934 126.8754,162.4694 126.8764,162.2454 L126.8714,162.9024 C126.8704,163.1274 126.7134,163.3504 126.4014,163.5174 L124.4944,164.5444 C123.8764,164.8784 122.8714,164.8684 122.2644,164.5254 L120.3864,163.4634 C120.0854,163.2944 119.9354,163.0704 119.9364,162.8484 L119.9414,162.1904 Z" id="Fill-52" fill="#D5E3F3"></path>
                    <path d="M126.8418,163.0117 C127.4618,162.6777 128.4638,162.6877 129.0728,163.0327 L130.9478,164.0917 C131.5568,164.4357 131.5488,164.9907 130.9288,165.3237 L129.0218,166.3497 C128.4028,166.6837 127.3998,166.6747 126.7908,166.3297 L124.9158,165.2707 C124.3078,164.9257 124.3158,164.3727 124.9358,164.0387 L126.8418,163.0117 Z" id="Fill-54" fill="#FEFEFE"></path>
                    <path d="M124.4648,164.6553 C124.4628,164.8773 124.6128,165.0993 124.9158,165.2703 L126.7908,166.3303 C127.3998,166.6753 128.4028,166.6833 129.0218,166.3493 L130.9288,165.3223 C131.2398,165.1553 131.3978,164.9313 131.3988,164.7073 L131.3948,165.3643 C131.3938,165.5893 131.2358,165.8123 130.9248,165.9803 L129.0178,167.0083 C128.3978,167.3413 127.3968,167.3323 126.7868,166.9883 L124.9118,165.9273 C124.6098,165.7563 124.4588,165.5333 124.4598,165.3123 L124.4648,164.6553 Z" id="Fill-56" fill="#D5E3F3"></path>
                    <path d="M119.5957,167.291 C119.5947,167.512 119.7427,167.734 120.0457,167.905 L121.9217,168.966 C122.5307,169.311 123.5337,169.317 124.1537,168.983 L126.0607,167.956 C126.3727,167.789 126.5297,167.565 126.5327,167.341 L126.5277,167.998 C126.5257,168.223 126.3687,168.445 126.0567,168.613 L124.1497,169.641 C123.5307,169.975 122.5257,169.968 121.9157,169.623 L120.0417,168.562 C119.7397,168.392 119.5907,168.17 119.5917,167.949 L119.5957,167.291 Z" id="Fill-58" fill="#D5E3F3"></path>
                    <path d="M118.043,152.1836 C118.663,151.8506 119.667,151.8616 120.272,152.2036 L122.151,153.2656 C122.757,153.6086 122.751,154.1626 122.131,154.4966 L120.224,155.5226 C119.605,155.8566 118.599,155.8476 117.991,155.5046 L116.114,154.4436 C115.508,154.1006 115.517,153.5436 116.136,153.2106 L118.043,152.1836 Z" id="Fill-60" fill="#FEFEFE"></path>
                    <path d="M122.8242,149.5879 C123.4432,149.2539 124.4492,149.2649 125.0542,149.6079 L126.9322,150.6699 C127.5392,151.0119 127.5332,151.5669 126.9132,151.9009 L125.0062,152.9269 C124.3862,153.2609 123.3822,153.2499 122.7752,152.9079 L120.8982,151.8459 C120.2922,151.5029 120.2982,150.9489 120.9172,150.6149 L122.8242,149.5879 Z" id="Fill-62" fill="#FEFEFE"></path>
                    <path d="M120.4482,151.2305 C120.4462,151.4535 120.5962,151.6755 120.8982,151.8455 L122.7752,152.9085 C123.3822,153.2505 124.3862,153.2605 125.0062,152.9265 L126.9132,151.9005 C127.2242,151.7325 127.3812,151.5085 127.3832,151.2845 L127.3782,151.9425 C127.3772,152.1665 127.2202,152.3895 126.9082,152.5575 L125.0012,153.5845 C124.3832,153.9185 123.3782,153.9085 122.7702,153.5645 L120.8932,152.5025 C120.5922,152.3335 120.4422,152.1105 120.4432,151.8885 L120.4482,151.2305 Z" id="Fill-64" fill="#D5E3F3"></path>
                    <path d="M127.3486,152.0518 C127.9686,151.7178 128.9706,151.7278 129.5786,152.0718 L131.4546,153.1308 C132.0636,153.4758 132.0546,154.0288 131.4356,154.3628 L129.5286,155.3898 C128.9096,155.7228 127.9066,155.7148 127.2976,155.3698 L125.4226,154.3098 C124.8136,153.9658 124.8226,153.4118 125.4416,153.0788 L127.3486,152.0518 Z" id="Fill-66" fill="#FEFEFE"></path>
                    <path d="M124.9717,153.6943 C124.9697,153.9163 125.1197,154.1383 125.4227,154.3093 L127.2977,155.3703 C127.9067,155.7153 128.9097,155.7223 129.5287,155.3893 L131.4357,154.3623 C131.7467,154.1943 131.9047,153.9713 131.9057,153.7473 L131.9017,154.4043 C131.8997,154.6293 131.7427,154.8523 131.4317,155.0193 L129.5247,156.0473 C128.9047,156.3813 127.9027,156.3723 127.2927,156.0273 L125.4177,154.9663 C125.1167,154.7973 124.9657,154.5743 124.9677,154.3513 L124.9717,153.6943 Z" id="Fill-68" fill="#D5E3F3"></path>
                    <path d="M120.1025,156.3301 C120.1015,156.5521 120.2505,156.7741 120.5525,156.9451 L122.4275,158.0051 C123.0375,158.3491 124.0415,158.3571 124.6605,158.0231 L126.5675,156.9961 C126.8795,156.8281 127.0375,156.6041 127.0385,156.3801 L127.0345,157.0381 C127.0325,157.2631 126.8745,157.4851 126.5645,157.6531 L124.6565,158.6801 C124.0375,159.0141 123.0325,159.0081 122.4225,158.6621 L120.5475,157.6021 C120.2465,157.4321 120.0965,157.2091 120.0985,156.9881 L120.1025,156.3301 Z" id="Fill-70" fill="#D5E3F3"></path>
                    <path d="M108.4834,157.7041 C109.1034,157.3711 110.1084,157.3821 110.7144,157.7241 L112.5914,158.7861 C113.1984,159.1291 113.1924,159.6831 112.5734,160.0171 L110.6654,161.0441 C110.0454,161.3771 109.0384,161.3681 108.4324,161.0261 L106.5544,159.9651 C105.9484,159.6211 105.9574,159.0651 106.5774,158.7321 L108.4834,157.7041 Z" id="Fill-72" fill="#FEFEFE"></path>
                    <path d="M113.2656,155.1084 C113.8846,154.7754 114.8896,154.7864 115.4946,155.1294 L117.3726,156.1904 C117.9796,156.5334 117.9736,157.0874 117.3536,157.4214 L115.4466,158.4484 C114.8276,158.7814 113.8236,158.7714 113.2176,158.4284 L111.3386,157.3674 C110.7336,157.0244 110.7396,156.4694 111.3596,156.1364 L113.2656,155.1084 Z" id="Fill-74" fill="#FEFEFE"></path>
                    <path d="M110.8887,156.751 C110.8877,156.975 111.0367,157.196 111.3387,157.367 L113.2177,158.429 C113.8237,158.772 114.8267,158.781 115.4467,158.448 L117.3537,157.422 C117.6647,157.253 117.8227,157.03 117.8247,156.805 L117.8197,157.464 C117.8177,157.688 117.6607,157.911 117.3497,158.079 L115.4437,159.105 C114.8237,159.439 113.8197,159.429 113.2117,159.086 L111.3337,158.024 C111.0337,157.855 110.8827,157.631 110.8847,157.409 L110.8887,156.751 Z" id="Fill-76" fill="#D5E3F3"></path>
                    <path d="M117.79,157.5723 C118.409,157.2393 119.412,157.2483 120.02,157.5933 L121.895,158.6523 C122.505,158.9973 122.497,159.5503 121.876,159.8833 L119.97,160.9103 C119.35,161.2433 118.348,161.2353 117.738,160.8903 L115.864,159.8313 C115.255,159.4863 115.264,158.9333 115.883,158.5993 L117.79,157.5723 Z" id="Fill-78" fill="#FEFEFE"></path>
                    <path d="M115.4121,159.2158 C115.4111,159.4378 115.5601,159.6588 115.8641,159.8308 L117.7381,160.8908 C118.3481,161.2358 119.3501,161.2428 119.9701,160.9098 L121.8771,159.8828 C122.1871,159.7158 122.3451,159.4908 122.3471,159.2678 L122.3421,159.9258 C122.3411,160.1498 122.1831,160.3728 121.8721,160.5408 L119.9651,161.5678 C119.3451,161.9028 118.3431,161.8928 117.7341,161.5478 L115.8591,160.4868 C115.5571,160.3178 115.4061,160.0948 115.4081,159.8718 L115.4121,159.2158 Z" id="Fill-80" fill="#D5E3F3"></path>
                    <path d="M110.5439,161.8516 C110.5419,162.0736 110.6909,162.2956 110.9929,162.4666 L112.8679,163.5256 C113.4779,163.8706 114.4819,163.8776 115.1019,163.5436 L117.0099,162.5166 C117.3209,162.3496 117.4789,162.1246 117.4799,161.9016 L117.4759,162.5586 C117.4729,162.7846 117.3159,163.0066 117.0039,163.1746 L115.0969,164.2026 C114.4789,164.5356 113.4739,164.5276 112.8639,164.1836 L110.9889,163.1226 C110.6879,162.9536 110.5389,162.7306 110.5399,162.5096 L110.5439,161.8516 Z" id="Fill-82" fill="#D5E3F3"></path>
                    <path d="M115.6465,153.7617 C115.6455,153.9827 115.7945,154.2057 116.0965,154.3757 L117.9715,155.4357 C118.5815,155.7807 119.5845,155.7877 120.2045,155.4537 L122.1115,154.4267 C122.4225,154.2597 122.5815,154.0357 122.5825,153.8107 L122.5785,154.4697 C122.5765,154.6937 122.4195,154.9157 122.1075,155.0837 L120.2005,156.1107 C119.5815,156.4457 118.5765,156.4387 117.9665,156.0937 L116.0925,155.0327 C115.7905,154.8627 115.6415,154.6397 115.6425,154.4187 L115.6465,153.7617 Z" id="Fill-84" fill="#D5E3F3"></path>
                    <path d="M122.4814,154.6855 C123.1014,154.3515 124.1024,154.3605 124.7114,154.7055 L126.5874,155.7645 C127.1954,156.1095 127.1874,156.6625 126.5674,156.9965 L124.6604,158.0235 C124.0424,158.3575 123.0374,158.3485 122.4274,158.0045 L120.5524,156.9455 C119.9434,156.6005 119.9554,156.0465 120.5744,155.7125 L122.4814,154.6855 Z" id="Fill-86" fill="#FEFEFE"></path>
                    <path d="M106.1328,159.3008 C106.1308,159.5228 106.2808,159.7448 106.5828,159.9158 L108.4578,160.9758 C109.0668,161.3208 110.0708,161.3258 110.6908,160.9938 L112.5978,159.9668 C112.9098,159.7988 113.0678,159.5748 113.0688,159.3508 L113.0648,160.0078 C113.0638,160.2338 112.9058,160.4548 112.5948,160.6238 L110.6868,161.6508 C110.0678,161.9848 109.0628,161.9768 108.4528,161.6328 L106.5788,160.5728 C106.2768,160.4018 106.1268,160.1798 106.1298,159.9578 L106.1328,159.3008 Z" id="Fill-88" fill="#D5E3F3"></path>
                    <path d="M112.9229,160.2061 C113.5419,159.8721 114.5439,159.8811 115.1529,160.2261 L117.0279,161.2861 C117.6369,161.6301 117.6279,162.1841 117.0089,162.5171 L115.1019,163.5441 C114.4819,163.8781 113.4779,163.8701 112.8679,163.5251 L110.9929,162.4671 C110.3849,162.1211 110.3969,161.5671 111.0159,161.2331 L112.9229,160.2061 Z" id="Fill-90" fill="#FEFEFE"></path>
                    <path d="M115.1758,164.7598 C115.1738,164.9818 115.3228,165.2038 115.6248,165.3748 L117.4998,166.4358 C118.1098,166.7808 119.1138,166.7858 119.7338,166.4528 L121.6408,165.4258 C121.9508,165.2578 122.1098,165.0338 122.1108,164.8108 L122.1068,165.4678 C122.1048,165.6928 121.9478,165.9158 121.6358,166.0828 L119.7288,167.1108 C119.1088,167.4438 118.1038,167.4378 117.4948,167.0928 L115.6198,166.0318 C115.3188,165.8618 115.1688,165.6398 115.1708,165.4178 L115.1758,164.7598 Z" id="Fill-92" fill="#D5E3F3"></path>
                    <path d="M121.9746,165.6455 C122.5946,165.3125 123.5956,165.3215 124.2056,165.6655 L126.0796,166.7245 C126.6896,167.0705 126.6806,167.6235 126.0606,167.9565 L124.1536,168.9835 C123.5346,169.3175 122.5296,169.3105 121.9216,168.9655 L120.0456,167.9055 C119.4376,167.5615 119.4496,167.0055 120.0676,166.6725 L121.9746,165.6455 Z" id="Fill-94" fill="#FEFEFE"></path>
                    <path d="M124.7285,159.2607 C124.7275,159.4827 124.8765,159.7047 125.1795,159.8757 L127.0535,160.9357 C127.6635,161.2807 128.6665,161.2857 129.2875,160.9537 L131.1945,159.9267 C131.5055,159.7587 131.6635,159.5347 131.6655,159.3107 L131.6605,159.9677 C131.6595,160.1937 131.5015,160.4157 131.1895,160.5837 L129.2835,161.6107 C128.6635,161.9447 127.6585,161.9377 127.0485,161.5927 L125.1745,160.5327 C124.8735,160.3617 124.7235,160.1397 124.7245,159.9177 L124.7285,159.2607 Z" id="Fill-96" fill="#D5E3F3"></path>
                    <path d="M131.5342,160.125 C132.1542,159.792 133.1552,159.801 133.7642,160.145 L135.6392,161.204 C136.2482,161.549 136.2402,162.102 135.6202,162.435 L133.7132,163.463 C133.0932,163.797 132.0892,163.789 131.4792,163.444 L129.6052,162.385 C128.9962,162.04 129.0072,161.485 129.6272,161.152 L131.5342,160.125 Z" id="Fill-98" fill="#FEFEFE"></path>
                    <path d="M254.2539,95.334 L254.2439,99.21 C254.2379,100.804 253.1919,102.397 251.0989,103.612 C246.8829,106.063 240.0299,106.063 235.7879,103.612 C233.6549,102.382 232.5899,100.767 232.5939,99.151 L232.6049,95.274 C232.6029,96.889 233.6659,98.505 235.7999,99.738 C240.0419,102.186 246.8969,102.186 251.1099,99.738 C253.2019,98.521 254.2509,96.93 254.2539,95.334" id="Fill-100" fill="#DE3B2C"></path>
                    <path d="M251.0596,90.8682 C255.3016,93.3172 255.3216,97.2912 251.1096,99.7372 C246.8956,102.1862 240.0406,102.1862 235.7996,99.7372 C231.5596,97.2912 231.5386,93.3182 235.7516,90.8712 C239.9626,88.4232 246.8206,88.4202 251.0596,90.8682" id="Fill-102" fill="#DF6B68"></path>
                    <path d="M254.2539,90.5264 L254.2439,94.4044 C254.2379,95.9984 253.1919,97.5894 251.0989,98.8064 C246.8829,101.2554 240.0299,101.2554 235.7879,98.8064 C233.6549,97.5744 232.5899,95.9594 232.5939,94.3434 L232.6049,90.4684 C232.6029,92.0834 233.6659,93.6994 235.7999,94.9304 C240.0419,97.3804 246.8969,97.3804 251.1099,94.9304 C253.2019,93.7144 254.2509,92.1224 254.2539,90.5264" id="Fill-104" fill="#DE3B2C"></path>
                    <path d="M251.0596,86.0615 C255.3016,88.5095 255.3216,92.4835 251.1096,94.9295 C246.8956,97.3805 240.0406,97.3805 235.7996,94.9295 C231.5596,92.4835 231.5386,88.5135 235.7516,86.0635 C239.9626,83.6155 246.8206,83.6145 251.0596,86.0615" id="Fill-106" fill="#DF6B68"></path>
                    <path d="M254.2539,85.7207 L254.2439,89.5967 C254.2379,91.1907 253.1919,92.7837 251.0989,93.9987 C246.8829,96.4497 240.0299,96.4497 235.7879,93.9987 C233.6549,92.7677 232.5899,91.1527 232.5939,89.5387 L232.6049,85.6607 C232.6029,87.2757 233.6659,88.8917 235.7999,90.1247 C240.0419,92.5737 246.8969,92.5737 251.1099,90.1247 C253.2019,88.9077 254.2509,87.3157 254.2539,85.7207" id="Fill-108" fill="#DE3B2C"></path>
                    <path d="M251.0596,81.2539 C255.3016,83.7039 255.3216,87.6769 251.1096,90.1229 C246.8956,92.5729 240.0406,92.5729 235.7996,90.1229 C231.5596,87.6769 231.5386,83.7059 235.7516,81.2579 C239.9626,78.8099 246.8206,78.8079 251.0596,81.2539" id="Fill-110" fill="#DF6B68"></path>
                    <path d="M254.2539,80.9131 L254.2439,84.7911 C254.2379,86.3851 253.1919,87.9761 251.0989,89.1921 C246.8829,91.6421 240.0299,91.6421 235.7879,89.1921 C233.6549,87.9611 232.5899,86.3461 232.5939,84.7311 L232.6049,80.8541 C232.6029,82.4701 233.6659,84.0851 235.7999,85.3171 C240.0419,87.7671 246.8969,87.7671 251.1099,85.3171 C253.2019,84.1011 254.2509,82.5091 254.2539,80.9131" id="Fill-112" fill="#DE3B2C"></path>
                    <path d="M251.0596,76.4482 C255.3016,78.8962 255.3216,82.8702 251.1096,85.3162 C246.8956,87.7672 240.0406,87.7672 235.7996,85.3162 C231.5596,82.8712 231.5386,78.9002 235.7516,76.4502 C239.9626,74.0022 246.8206,74.0002 251.0596,76.4482" id="Fill-114" fill="#DF6B68"></path>
                    <path d="M254.2539,76.1074 L254.2439,79.9834 C254.2379,81.5774 253.1919,83.1704 251.0989,84.3854 C246.8829,86.8364 240.0299,86.8364 235.7879,84.3854 C233.6549,83.1554 232.5899,81.5394 232.5939,79.9244 L232.6049,76.0474 C232.6029,77.6624 233.6659,79.2794 235.7999,80.5104 C240.0419,82.9604 246.8969,82.9604 251.1099,80.5104 C253.2019,79.2934 254.2509,77.7034 254.2539,76.1074" id="Fill-116" fill="#DE3B2C"></path>
                    <path d="M251.0596,71.6416 C255.3016,74.0906 255.3216,78.0636 251.1096,80.5096 C246.8956,82.9596 240.0406,82.9596 235.7996,80.5096 C231.5596,78.0636 231.5386,74.0926 235.7516,71.6446 C239.9626,69.1966 246.8206,69.1946 251.0596,71.6416" id="Fill-118" fill="#DF6B68"></path>
                    <path d="M254.2539,71.2998 L254.2439,75.1758 C254.2379,76.7718 253.1919,78.3628 251.0989,79.5798 C246.8829,82.0288 240.0299,82.0288 235.7879,79.5798 C233.6549,78.3478 232.5899,76.7328 232.5939,75.1168 L232.6049,71.2418 C232.6029,72.8558 233.6659,74.4718 235.7999,75.7038 C240.0419,78.1538 246.8969,78.1538 251.1099,75.7038 C253.2019,74.4878 254.2509,72.8958 254.2539,71.2998" id="Fill-120" fill="#DE3B2C"></path>
                    <path d="M251.0596,66.835 C255.3016,69.283 255.3216,73.257 251.1096,75.703 C246.8956,78.154 240.0406,78.154 235.7996,75.703 C231.5596,73.258 231.5386,69.286 235.7516,66.837 C239.9626,64.389 246.8206,64.387 251.0596,66.835" id="Fill-122" fill="#DF6B68"></path>
                    <path d="M282.5098,95.334 L282.4978,99.21 C282.4918,100.804 281.4458,102.397 279.3518,103.612 C275.1388,106.063 268.2848,106.063 264.0418,103.612 C261.9088,102.382 260.8448,100.767 260.8498,99.151 L260.8608,95.274 C260.8568,96.889 261.9198,98.505 264.0538,99.738 C268.2958,102.186 275.1498,102.186 279.3638,99.738 C281.4558,98.521 282.5048,96.93 282.5098,95.334" id="Fill-124" fill="#4A9DD6"></path>
                    <path d="M279.3135,90.8682 C283.5565,93.3172 283.5765,97.2912 279.3635,99.7372 C275.1495,102.1862 268.2955,102.1862 264.0525,99.7372 C259.8155,97.2912 259.7915,93.3182 264.0055,90.8712 C268.2185,88.4232 275.0755,88.4202 279.3135,90.8682" id="Fill-126" fill="#4CBFDA"></path>
                    <path d="M282.5098,90.5264 L282.4978,94.4044 C282.4918,95.9984 281.4458,97.5894 279.3518,98.8064 C275.1388,101.2554 268.2848,101.2554 264.0418,98.8064 C261.9088,97.5744 260.8448,95.9594 260.8498,94.3434 L260.8608,90.4684 C260.8568,92.0834 261.9198,93.6994 264.0538,94.9304 C268.2958,97.3804 275.1498,97.3804 279.3638,94.9304 C281.4558,93.7144 282.5048,92.1224 282.5098,90.5264" id="Fill-128" fill="#4A9DD6"></path>
                    <path d="M279.3135,86.0615 C283.5565,88.5095 283.5765,92.4835 279.3635,94.9295 C275.1495,97.3805 268.2955,97.3805 264.0525,94.9295 C259.8155,92.4835 259.7915,88.5135 264.0055,86.0635 C268.2185,83.6155 275.0755,83.6145 279.3135,86.0615" id="Fill-130" fill="#4CBFDA"></path>
                    <path d="M282.5098,85.7207 L282.4978,89.5967 C282.4918,91.1907 281.4458,92.7837 279.3518,93.9987 C275.1388,96.4497 268.2848,96.4497 264.0418,93.9987 C261.9088,92.7677 260.8448,91.1527 260.8498,89.5387 L260.8608,85.6607 C260.8568,87.2757 261.9198,88.8917 264.0538,90.1247 C268.2958,92.5737 275.1498,92.5737 279.3638,90.1247 C281.4558,88.9077 282.5048,87.3157 282.5098,85.7207" id="Fill-132" fill="#4A9DD6"></path>
                    <path d="M279.3135,81.2539 C283.5565,83.7039 283.5765,87.6769 279.3635,90.1229 C275.1495,92.5729 268.2955,92.5729 264.0525,90.1229 C259.8155,87.6769 259.7915,83.7059 264.0055,81.2579 C268.2185,78.8099 275.0755,78.8079 279.3135,81.2539" id="Fill-134" fill="#4CBFDA"></path>
                    <path d="M282.5098,80.9131 L282.4978,84.7911 C282.4918,86.3851 281.4458,87.9761 279.3518,89.1921 C275.1388,91.6421 268.2848,91.6421 264.0418,89.1921 C261.9088,87.9611 260.8448,86.3461 260.8498,84.7311 L260.8608,80.8541 C260.8568,82.4701 261.9198,84.0851 264.0538,85.3171 C268.2958,87.7671 275.1498,87.7671 279.3638,85.3171 C281.4558,84.1011 282.5048,82.5091 282.5098,80.9131" id="Fill-136" fill="#4A9DD6"></path>
                    <path d="M279.3135,76.4482 C283.5565,78.8962 283.5765,82.8702 279.3635,85.3162 C275.1495,87.7672 268.2955,87.7672 264.0525,85.3162 C259.8155,82.8712 259.7915,78.9002 264.0055,76.4502 C268.2185,74.0022 275.0755,74.0002 279.3135,76.4482" id="Fill-138" fill="#4CBFDA"></path>
                    <path d="M282.5098,76.1074 L282.4978,79.9834 C282.4918,81.5774 281.4458,83.1704 279.3518,84.3854 C275.1388,86.8364 268.2848,86.8364 264.0418,84.3854 C261.9088,83.1554 260.8448,81.5394 260.8498,79.9244 L260.8608,76.0474 C260.8568,77.6624 261.9198,79.2794 264.0538,80.5104 C268.2958,82.9604 275.1498,82.9604 279.3638,80.5104 C281.4558,79.2934 282.5048,77.7034 282.5098,76.1074" id="Fill-140" fill="#4A9DD6"></path>
                    <path d="M279.3135,71.6416 C283.5565,74.0906 283.5765,78.0636 279.3635,80.5096 C275.1495,82.9596 268.2955,82.9596 264.0525,80.5096 C259.8155,78.0636 259.7915,74.0926 264.0055,71.6446 C268.2185,69.1966 275.0755,69.1946 279.3135,71.6416" id="Fill-142" fill="#4CBFDA"></path>
                    <path d="M282.5098,71.2998 L282.4978,75.1758 C282.4918,76.7718 281.4458,78.3628 279.3518,79.5798 C275.1388,82.0288 268.2848,82.0288 264.0418,79.5798 C261.9088,78.3478 260.8448,76.7328 260.8498,75.1168 L260.8608,71.2418 C260.8568,72.8558 261.9198,74.4718 264.0538,75.7038 C268.2958,78.1538 275.1498,78.1538 279.3638,75.7038 C281.4558,74.4878 282.5048,72.8958 282.5098,71.2998" id="Fill-144" fill="#4A9DD6"></path>
                    <path d="M279.3135,66.835 C283.5565,69.283 283.5765,73.257 279.3635,75.703 C275.1495,78.154 268.2955,78.154 264.0525,75.703 C259.8155,73.258 259.7915,69.286 264.0055,66.837 C268.2185,64.389 275.0755,64.387 279.3135,66.835" id="Fill-146" fill="#4CBFDA"></path>
                    <path d="M270.0586,105.0635 L270.0486,108.9395 C270.0426,110.5335 268.9966,112.1275 266.9026,113.3415 C262.6896,115.7925 255.8346,115.7925 251.5926,113.3415 C249.4596,112.1125 248.3956,110.4955 248.3986,108.8815 L248.4096,105.0055 C248.4066,106.6185 249.4706,108.2355 251.6036,109.4675 C255.8466,111.9165 262.7006,111.9165 266.9136,109.4675 C269.0066,108.2505 270.0556,106.6595 270.0586,105.0635" id="Fill-148" fill="#E5BA41"></path>
                    <path d="M266.8643,100.5977 C271.1063,103.0467 271.1263,107.0207 266.9143,109.4667 C262.6993,111.9157 255.8453,111.9157 251.6033,109.4667 C247.3663,107.0207 247.3423,103.0487 251.5563,100.6007 C255.7693,98.1527 262.6263,98.1517 266.8643,100.5977" id="Fill-150" fill="#E6D061"></path>
                    <path d="M270.0586,100.2559 L270.0486,104.1339 C270.0426,105.7279 268.9966,107.3199 266.9026,108.5359 C262.6896,110.9849 255.8346,110.9849 251.5926,108.5359 C249.4596,107.3039 248.3956,105.6889 248.3986,104.0739 L248.4096,100.1979 C248.4066,101.8129 249.4706,103.4279 251.6036,104.6599 C255.8466,107.1099 262.7006,107.1099 266.9136,104.6599 C269.0066,103.4439 270.0556,101.8529 270.0586,100.2559" id="Fill-152" fill="#E5BA41"></path>
                    <path d="M266.8643,95.792 C271.1063,98.239 271.1263,102.215 266.9143,104.659 C262.6993,107.11 255.8453,107.11 251.6033,104.659 C247.3663,102.215 247.3423,98.242 251.5563,95.793 C255.7693,93.347 262.6263,93.344 266.8643,95.792" id="Fill-154" fill="#E6D061"></path>
                    <path d="M270.0586,95.4502 L270.0486,99.3262 C270.0426,100.9202 268.9966,102.5132 266.9026,103.7282 C262.6896,106.1792 255.8346,106.1792 251.5926,103.7282 C249.4596,102.4992 248.3956,100.8832 248.3986,99.2682 L248.4096,95.3922 C248.4066,97.0052 249.4706,98.6232 251.6036,99.8542 C255.8466,102.3022 262.7006,102.3022 266.9136,99.8542 C269.0066,98.6382 270.0556,97.0462 270.0586,95.4502" id="Fill-156" fill="#E5BA41"></path>
                    <path d="M266.8643,90.9854 C271.1063,93.4344 271.1263,97.4074 266.9143,99.8524 C262.6993,102.3024 255.8453,102.3024 251.6033,99.8524 C247.3663,97.4074 247.3423,93.4354 251.5563,90.9874 C255.7693,88.5394 262.6263,88.5384 266.8643,90.9854" id="Fill-158" fill="#E6D061"></path>
                    <path d="M270.0586,90.6426 L270.0486,94.5206 C270.0426,96.1146 268.9966,97.7066 266.9026,98.9226 C262.6896,101.3726 255.8346,101.3726 251.5926,98.9226 C249.4596,97.6926 248.3956,96.0756 248.3986,94.4606 L248.4096,90.5846 C248.4066,92.1996 249.4706,93.8156 251.6036,95.0476 C255.8466,97.4966 262.7006,97.4966 266.9136,95.0476 C269.0066,93.8306 270.0556,92.2386 270.0586,90.6426" id="Fill-160" fill="#E5BA41"></path>
                    <path d="M266.8643,86.1787 C271.1063,88.6267 271.1263,92.6007 266.9143,95.0477 C262.6993,97.4967 255.8453,97.4967 251.6033,95.0477 C247.3663,92.6007 247.3423,88.6297 251.5563,86.1807 C255.7693,83.7337 262.6263,83.7307 266.8643,86.1787" id="Fill-162" fill="#E6D061"></path>
                    <path d="M270.0586,85.8369 L270.0486,89.7129 C270.0426,91.3069 268.9966,92.8999 266.9026,94.1149 C262.6896,96.5659 255.8346,96.5659 251.5926,94.1149 C249.4596,92.8849 248.3956,91.2689 248.3986,89.6539 L248.4096,85.7779 C248.4066,87.3919 249.4706,89.0089 251.6036,90.2409 C255.8466,92.6889 262.7006,92.6889 266.9136,90.2409 C269.0066,89.0239 270.0556,87.4329 270.0586,85.8369" id="Fill-164" fill="#E5BA41"></path>
                    <path d="M266.8643,81.3721 C271.1063,83.8201 271.1263,87.7931 266.9143,90.2401 C262.6993,92.6891 255.8453,92.6891 251.6033,90.2401 C247.3663,87.7931 247.3423,83.8221 251.5563,81.3741 C255.7693,78.9261 262.6263,78.9241 266.8643,81.3721" id="Fill-166" fill="#E6D061"></path>
                    <path d="M270.0586,81.0293 L270.0486,84.9073 C270.0426,86.5013 268.9966,88.0923 266.9026,89.3093 C262.6896,91.7583 255.8346,91.7583 251.5926,89.3093 C249.4596,88.0773 248.3956,86.4623 248.3986,84.8473 L248.4096,80.9703 C248.4066,82.5863 249.4706,84.2013 251.6036,85.4343 C255.8466,87.8833 262.7006,87.8833 266.9136,85.4333 C269.0066,84.2173 270.0556,82.6253 270.0586,81.0293" id="Fill-168" fill="#E5BA41"></path>
                    <path d="M266.8643,76.5645 C271.1063,79.0135 271.1263,82.9875 266.9143,85.4325 C262.6993,87.8835 255.8453,87.8835 251.6033,85.4335 C247.3663,82.9875 247.3423,79.0165 251.5563,76.5685 C255.7693,74.1205 262.6263,74.1175 266.8643,76.5645" id="Fill-170" fill="#E6D061"></path>
                    <polygon id="Fill-172" fill="#C73D3D" points="146.6816 47.6162 142.3036 45.0692 157.5256 18.5812 161.8976 21.1282"></polygon>
                    <polygon id="Fill-174" fill="#C73D3D" points="157.2158 18.4912 152.8378 15.9462 169.7888 0.8542 174.1678 3.4002"></polygon>
                    <polygon id="Fill-176" fill="#C73D3D" points="125.625 50.0283 121.247 47.4803 142.304 45.0693 146.682 47.6163"></polygon>
                    <polygon id="Fill-178" fill="#C73D3D" points="96.7871 99.9648 92.4091 97.4188 121.2471 47.4808 125.6251 50.0268"></polygon>
                    <polygon id="Fill-180" fill="#E17163" points="157.2158 18.4912 174.1678 3.4002 169.7318 25.5332 165.0458 22.8832 147.7738 52.9412 126.6948 55.3642 99.9208 101.7502 96.7868 99.9652 125.6248 50.0282 146.6818 47.6162 161.8978 21.1262"></polygon>
                    <polygon id="Fill-182" fill="#9AB1C6" points="175.8418 95.1738 162.7068 87.5418 162.5668 38.6878 175.7038 46.3198"></polygon>
                    <polygon id="Fill-184" fill="#D5E3F3" points="175.7041 46.3203 162.5661 38.6873 176.7251 30.5123 189.8621 38.1453"></polygon>
                    <polygon id="Fill-186" fill="#F7F8FB" points="189.8623 38.1455 190.0003 87.0015 175.8413 95.1735 175.7043 46.3205"></polygon>
                    <polygon id="Fill-188" fill="#3386B6" points="157.875 105.5488 144.741 97.9118 144.655 68.1008 157.793 75.7318"></polygon>
                    <polygon id="Fill-190" fill="#4A9DD6" points="157.793 75.7314 144.655 68.0984 158.814 59.9234 171.944 67.5564"></polygon>
                    <polygon id="Fill-192" fill="#4CBFDA" points="171.9443 67.5566 172.0333 97.3716 157.8753 105.5486 157.7933 75.7316"></polygon>
                    <polygon id="Fill-194" fill="#C22D23" points="139.9062 115.9199 126.7742 108.2869 126.6712 70.5189 139.8022 78.1519"></polygon>
                    <polygon id="Fill-196" fill="#DE3B2C" points="139.8018 78.1523 126.6708 70.5183 140.8348 62.3373 153.9728 69.9733"></polygon>
                    <polygon id="Fill-198" fill="#DF6B68" points="153.9727 69.9736 154.0797 107.7386 139.9067 115.9196 139.8017 78.1526"></polygon>
                    <polygon id="Fill-200" fill="#D7851A" points="121.9521 126.083 108.8141 118.45 108.7561 97.622 121.8931 105.256"></polygon>
                    <polygon id="Fill-202" fill="#E7A331" points="121.8936 105.2559 108.7556 97.6219 122.9206 89.4469 136.0526 97.0789"></polygon>
                    <polygon id="Fill-204" fill="#F2C21E" points="136.0527 97.0791 136.1137 117.9081 121.9517 126.0831 121.8937 105.2551"></polygon>
                    <path d="M186.375,160.6064 C185.43,164.0794 187.062,166.5574 185.49,168.7524 C185.49,168.7524 185.419,168.8834 185.406,169.0434 C185.382,169.3494 185.407,169.8684 185.8,170.2544 C186.528,170.9654 187.996,169.3124 188.689,168.8204 C190.343,166.7704 188.554,164.9484 190.348,163.1634 L192.591,165.6864 L193.317,165.1684 C193.403,165.1084 192.146,163.0294 192.146,163.0294 C191.28,161.7404 191.33,159.2904 189.886,159.8334 C189.325,160.0434 188.927,159.0294 188.332,158.7104 C186.699,157.8354 186.375,160.6064 186.375,160.6064" id="Fill-206" fill="#8D1913"></path>
                    <path d="M184.5195,131.3076 C184.5325,131.8016 178.0915,144.8636 179.2295,146.0076 C182.3295,149.1076 190.8935,159.2866 190.9395,160.3626 C188.4705,162.2536 187.4265,165.0056 185.5125,164.4456 C184.5935,164.1756 171.6745,148.2556 172.2255,144.8546 C173.3745,137.7376 175.5625,129.3536 175.5625,129.3536 L178.0265,120.4376 C178.0265,120.4376 184.2845,124.8566 184.5195,131.3076" id="Fill-208" fill="#1A1A18"></path>
                    <path d="M183.6934,163.8076 C180.9094,166.0896 180.8044,169.0556 178.2524,169.9316 C178.2524,169.9316 178.1184,169.9976 178.0144,170.1206 C177.8164,170.3566 177.5374,170.7946 177.6334,171.3376 C177.8164,172.3386 179.9694,171.8406 180.8194,171.8406 C183.3544,171.1296 182.9534,168.6066 185.4504,168.1916 L185.8154,171.5486 L186.7084,171.5486 C186.8134,171.5486 186.9964,169.1256 186.9964,169.1256 C187.0344,167.5736 188.4954,165.6056 187.0034,165.2096 C186.4234,165.0566 186.6854,164.0016 186.3854,163.3976 C185.5634,161.7356 183.6934,163.8076 183.6934,163.8076" id="Fill-210" fill="#D31917"></path>
                    <path d="M187.6211,124.6504 C188.3451,127.0294 191.1401,124.5874 191.1001,131.6674 C191.0981,131.9374 191.8291,135.2934 190.1001,138.3874 C186.1791,145.4064 189.0951,163.0474 188.6261,165.3564 C188.6261,165.3564 186.3661,165.4784 184.9271,165.9904 C182.8981,166.7134 182.1421,165.9424 182.1421,165.9424 C181.8461,160.9634 182.0811,155.4594 181.3511,150.2094 C181.1861,149.0204 181.1841,148.1404 181.2101,147.2694 C181.5161,136.5814 180.2671,128.5834 181.1251,131.1934 C181.1251,131.1934 183.5171,126.8604 183.4851,126.6004 L184.5681,123.6504 L187.6211,124.6504 Z" id="Fill-212" fill="#3B3A39"></path>
                    <path d="M171.9043,126.4082 L170.7283,126.4112 L169.9533,127.3802 C169.9533,127.3802 169.1323,129.5922 170.1073,131.4442 C170.3293,131.8672 170.8163,132.0942 171.4433,132.1112 C171.9623,132.1282 172.1633,130.1602 172.1633,130.1602 L172.8833,128.5142 C172.9343,127.9922 172.6933,126.4152 171.9043,126.4082" id="Fill-214" fill="#E6CFC2"></path>
                    <path d="M170.5937,127.1113 L172.8997,127.7323 C172.8997,127.7323 177.0387,120.9043 178.2397,116.3383 C178.7797,114.2693 180.0647,107.0973 180.0647,107.0973 C180.9167,104.9833 182.9427,102.0063 180.5457,101.5733 C176.8557,100.9053 175.9847,104.3263 175.9847,104.3263 C175.9847,104.3263 174.8387,112.3623 174.1327,114.8703 C173.3227,117.7373 170.5937,127.1113 170.5937,127.1113" id="Fill-216" fill="#E6CFC2"></path>
                    <path d="M172.0459,127.4189 C171.9869,128.0739 171.0629,128.2749 170.7469,128.7889 C170.4969,129.2029 171.5289,129.7669 171.4969,130.2579 C171.4549,130.8349 170.7749,130.6719 170.6529,130.4029 C170.5979,130.2859 169.3799,128.9209 169.4539,128.4589 C169.6969,126.9239 170.7639,126.1889 171.3559,126.2409 C171.9439,126.2949 172.1069,126.7699 172.0459,127.4189" id="Fill-218" fill="#F9E3D3"></path>
                    <path d="M177.0967,119.6289 C177.0967,119.6289 177.0967,118.8079 175.5487,117.8959 C174.9477,117.5439 173.3527,117.3019 173.3527,117.3019 L173.2977,117.2689 C173.6637,116.3099 173.9627,115.4609 174.1327,114.8699 C174.8387,112.3619 175.4817,105.4089 175.4817,105.4089 C175.4817,105.4089 175.2637,99.9799 180.2517,100.8499 C182.6527,101.2689 180.9167,104.9829 180.0647,107.0979 C180.0647,107.0979 178.9747,114.3299 178.2407,116.3379 C178.0107,116.9679 177.6597,119.0059 177.0967,119.6289" id="Fill-220" fill="#DB8C22"></path>
                    <path d="M176.6846,103.0879 L174.7106,108.8989 C174.7106,108.8989 174.1076,110.6379 174.1906,111.6449 C174.3086,113.0679 175.2486,114.3379 175.3156,114.4419 C175.9896,115.5449 177.0136,117.8129 176.7406,121.0099 L175.9196,128.5329 C175.9196,128.5329 175.8706,129.8529 178.6756,130.6099 C185.5936,132.4859 190.5286,127.7859 190.5286,127.7859 C190.5286,127.6479 188.3726,120.7009 188.3726,120.7009 C187.7356,118.7619 187.8356,117.8129 188.0316,116.7219 L189.4256,111.7379 C189.4256,111.7379 190.9096,106.1509 189.3916,104.4459 C188.0766,102.9669 185.6416,101.1709 184.3626,100.3599 C184.0456,100.1619 183.0016,100.6319 182.1516,100.3979 C182.1516,100.3979 177.7696,99.1729 176.6846,103.0879" id="Fill-222" fill="#F3C420"></path>
                    <path d="M193.1348,130.6914 C193.6858,128.0434 194.7118,122.2594 194.1108,118.2464 C193.7958,116.1434 191.7838,109.6354 191.7838,109.6354 C191.5358,107.4544 190.5258,103.9194 188.0558,104.2324 C185.1008,104.6124 186.0788,108.5514 186.0788,108.5514 L190.2498,119.4044 L190.8598,130.5544 C190.2618,130.8904 189.6358,131.6864 189.3228,133.0874 C189.1968,133.6594 189.2968,135.0584 189.3738,135.1944 C189.4798,135.3704 189.6288,135.7554 189.9898,135.1444 C190.3408,134.5604 189.9898,133.9094 190.2068,133.4754 C190.2408,133.4094 190.2868,133.3494 190.3428,133.2954 C190.7708,134.3994 190.5048,135.6054 190.5048,135.6054 C190.5048,135.6054 189.6398,136.9374 190.1448,137.1964 C190.5488,137.4084 191.3608,136.1364 191.3608,136.1364 C192.8228,136.3104 193.0608,135.4484 193.2498,134.7684 C193.3768,134.3264 193.3818,132.1134 193.3818,132.1134 C193.2828,131.3714 193.2238,130.9424 193.1348,130.6914" id="Fill-224" fill="#F9E3D3"></path>
                    <path d="M190.3076,120.0937 C190.3076,120.0937 191.8666,120.9457 194.0756,120.0957 C194.7886,119.8227 194.3156,118.1147 194.3156,118.1147 L192.0786,109.7807 C191.3776,106.9577 190.5256,103.9187 188.0556,104.2317 C185.1006,104.6127 186.0786,108.5517 186.0786,108.5517 L189.5966,117.7507 L190.3076,120.0937 Z" id="Fill-226" fill="#F6EB82"></path>
                    <path d="M175.8486,91.1934 C175.8486,91.1934 175.2866,97.3684 174.3826,100.8874 C174.2176,101.5274 180.4066,103.5664 182.0716,102.1184 C183.4686,100.9014 179.7296,97.3584 179.7296,97.3584 L175.8486,91.1934 Z" id="Fill-228" fill="#8C4E17"></path>
                    <path d="M179.5459,106.2725 C179.8569,109.3465 184.9409,106.7545 186.0119,102.6805 L184.2949,95.6465 L179.3159,95.5815 L180.8399,102.9685 C180.8399,102.9685 179.4359,105.1695 179.5459,106.2725" id="Fill-230" fill="#F4D6BD"></path>
                    <path d="M184.999,85.5684 C181.727,84.1394 178.366,85.6384 177.011,87.4934 C174.921,90.3574 175.942,92.3244 175.889,92.4184 C175.526,93.0934 178.542,90.2124 179.308,90.7354 C180.155,91.3074 180.154,90.8474 179.662,92.9674 C179.465,93.7974 179.661,94.2014 180.29,94.3464 C180.998,94.5074 181.533,94.6244 181.533,94.6244 C181.533,94.6244 182.645,93.4404 182.947,93.9144 C184.967,97.0814 183.455,104.1974 183.455,104.1974 C184.708,104.5584 190.145,101.0874 190.242,98.4704 C190.38,94.7504 189.803,87.6694 184.999,85.5684" id="Fill-232" fill="#8C4E17"></path>
                    <path d="M179.4805,89.6572 C176.5415,89.0472 175.9545,90.0882 175.8415,91.9372 C175.7465,93.4622 176.6795,97.7932 176.6795,97.7932 C177.0235,100.0432 178.3425,101.3092 179.1135,101.6482 C181.4545,102.6822 183.5725,100.2492 183.9405,98.7202 C184.1265,97.9442 183.6345,95.0602 183.2215,93.9142 C182.8335,92.8362 181.7655,90.1332 179.4805,89.6572" id="Fill-234" fill="#F9E3D3"></path>
                </g>
                <path d="M87.667,61.4985 C85.455,60.9485 84.597,60.2305 84.597,59.1135 C84.597,57.8315 85.785,56.9375 87.772,56.9375 C89.866,56.9375 90.643,57.9365 90.713,60.0615 L93.313,60.0615 C93.229,57.3845 91.995,55.5265 89.104,54.9265 L89.104,52.8735 L86.23,52.8735 L86.23,54.8915 C83.727,55.3855 81.892,56.8665 81.892,59.1375 C81.892,61.8535 84.139,63.2065 87.42,63.9945 C90.36,64.7005 90.948,65.7345 90.948,66.8285 C90.948,67.6405 90.372,68.9345 87.772,68.9345 C85.35,68.9345 84.397,67.8525 84.268,65.8105 L81.68,65.8105 C81.821,69.0405 83.75,70.4865 86.23,70.9695 L86.23,72.9985 L89.104,72.9985 L89.104,70.9925 C91.83,70.5575 93.653,69.2275 93.653,66.8165 C93.653,63.4775 90.795,62.3365 87.667,61.4985" id="Fill-237" fill="#FEFEFE"></path>
            </g>
        </g>
    </g>
</svg>